<svg width="243" height="13" viewBox="0 0 243 13" fill="none" xmlns="http://www.w3.org/2000/svg">
<path d="M1.5 10.088C1.6107 9.56117 2.74141 9.15831 3.53436 8.91056C7.86365 7.55791 13.0899 6.96676 17.7199 5.97429C25.2212 4.36634 33.144 1.82317 41.39 1.51174C46.4337 1.32125 43.4635 3.54456 41.7199 4.75327C39.3821 6.37398 35.3784 7.85633 33.8849 9.76819C32.8847 11.0486 40.0293 9.77692 40.4278 9.71004C48.3125 8.38695 55.9624 6.59231 63.6856 5.02945C64.4358 4.87763 70.7324 3.31008 69.5687 4.97131C68.4897 6.51181 65.4031 7.53562 63.2182 8.60531C59.9551 10.2029 66.959 8.65546 67.7543 8.47448C74.6312 6.90956 81.131 4.72624 88.2354 3.4741C89.1894 3.30595 96.9534 1.91716 96.3729 3.50317C95.5555 5.73607 91.551 7.30856 89.6924 9.27396C87.6979 11.3832 93.4236 10.4825 95.3832 10.1461C102.374 8.94599 108.886 7.13085 116.002 6.06151C119.008 5.60979 122.06 5.24788 125.101 4.86955C126.012 4.75627 128.788 4.16963 129.747 4.52069C131.292 5.08619 124.621 7.68731 124.057 7.93665C123.308 8.26714 117.415 11.0293 121.473 10.8148C127.563 10.4928 133.749 8.53918 139.452 7.4715C145.925 6.25967 152.365 4.81373 159.136 4.12822C159.982 4.04254 165.679 3.28094 165.679 4.37533C165.679 5.83266 163.013 7.17187 162.847 8.75067C162.692 10.2229 163.935 10.7016 166.696 10.2769C172.181 9.43318 177.691 8.14227 183.053 7.07903C186.859 6.32438 190.653 5.59599 194.545 4.97131C196.966 4.58268 191.979 7.44675 191.521 7.675C191.052 7.90853 184.445 11.2479 187.507 11.4834C189.525 11.6386 192.18 10.6799 193.83 10.2333C197.256 9.30588 200.661 8.37308 204.167 7.52964C208.634 6.45467 213.698 4.92994 218.792 5.17481C221.692 5.31421 221.38 6.50719 220.112 7.52964C217.609 9.54771 220.154 8.84197 223.136 8.14015C229.32 6.68441 235.388 5.08561 241.5 3.54678" stroke="#AFFF1A" stroke-width="3" stroke-linecap="round" stroke-linejoin="round"/>
</svg>
